<?xml version="1.0" encoding="UTF-8" standalone="no"?>
<!-- Created with Inkscape (http://www.inkscape.org/) -->

<svg
   xmlns:dc="http://purl.org/dc/elements/1.1/"
   xmlns:cc="http://creativecommons.org/ns#"
   xmlns:rdf="http://www.w3.org/1999/02/22-rdf-syntax-ns#"
   xmlns:svg="http://www.w3.org/2000/svg"
   xmlns="http://www.w3.org/2000/svg"
   xmlns:sodipodi="http://sodipodi.sourceforge.net/DTD/sodipodi-0.dtd"
   xmlns:inkscape="http://www.inkscape.org/namespaces/inkscape"
   width="150px"
   height="150px"
   viewBox="0 0 150 150"
   version="1.1"
   id="SVGRoot"
   inkscape:version="0.92.1 r15371"
   sodipodi:docname="browser.svg">
  <sodipodi:namedview
     id="base"
     pagecolor="#ffffff"
     bordercolor="#666666"
     borderopacity="1.0"
     inkscape:pageopacity="0.0"
     inkscape:pageshadow="2"
     inkscape:zoom="1.7066667"
     inkscape:cx="-33.105469"
     inkscape:cy="-11.71875"
     inkscape:document-units="px"
     inkscape:current-layer="g5359"
     showgrid="false"
     inkscape:window-width="1920"
     inkscape:window-height="1017"
     inkscape:window-x="-8"
     inkscape:window-y="472"
     inkscape:window-maximized="1"
     inkscape:grid-bbox="true" />
  <defs
     id="defs949" />
  <metadata
     id="metadata952">
    <rdf:RDF>
      <cc:Work
         rdf:about="">
        <dc:format>image/svg+xml</dc:format>
        <dc:type
           rdf:resource="http://purl.org/dc/dcmitype/StillImage" />
        <dc:title></dc:title>
      </cc:Work>
    </rdf:RDF>
  </metadata>
  <g
     id="layer1"
     inkscape:groupmode="layer"
     inkscape:label="Layer 1">
    <g
       id="g5359"
       transform="matrix(0.51461057,0,0,0.51461057,80.665132,80.494941)">
      <g
         id="g5522"
         transform="matrix(0.38453402,0,0,0.38453402,-124.83411,-124.50339)"
         style="fill:#ffffff;fill-opacity:1">
        <g
           id="g5454"
           style="fill:#ffffff;fill-opacity:1">
          <g
             id="g5452"
             style="fill:#ffffff;fill-opacity:1">
            <g
               id="g5432"
               style="fill:#ffffff;fill-opacity:1">
              <circle
                 id="circle5428"
                 r="21.216"
                 cy="93.852997"
                 cx="503.44101"
                 style="fill:#ffffff;fill-opacity:1" />
              <path
                 id="path5430"
                 d="m 503.441,115.569 c -11.975,0 -21.717,-9.742 -21.717,-21.716 0,-11.975 9.742,-21.716 21.717,-21.716 11.974,0 21.715,9.742 21.715,21.716 0,11.974 -9.741,21.716 -21.715,21.716 z m 0,-42.432 c -11.423,0 -20.717,9.293 -20.717,20.716 0,11.423 9.294,20.716 20.717,20.716 11.422,0 20.715,-9.293 20.715,-20.716 0,-11.423 -9.293,-20.716 -20.715,-20.716 z"
                 inkscape:connector-curvature="0"
                 style="fill:#ffffff;fill-opacity:1" />
            </g>
            <g
               id="g5438"
               style="fill:#ffffff;fill-opacity:1">
              <circle
                 id="circle5434"
                 r="21.216"
                 cy="93.852997"
                 cx="440.20099"
                 style="fill:#ffffff;fill-opacity:1" />
              <path
                 id="path5436"
                 d="m 440.201,115.569 c -11.975,0 -21.717,-9.742 -21.717,-21.716 0,-11.975 9.742,-21.716 21.717,-21.716 11.974,0 21.715,9.742 21.715,21.716 0,11.974 -9.741,21.716 -21.715,21.716 z m 0,-42.432 c -11.423,0 -20.717,9.293 -20.717,20.716 0,11.423 9.294,20.716 20.717,20.716 11.422,0 20.715,-9.293 20.715,-20.716 0,-11.423 -9.293,-20.716 -20.715,-20.716 z"
                 inkscape:connector-curvature="0"
                 style="fill:#ffffff;fill-opacity:1" />
            </g>
            <g
               id="g5444"
               style="fill:#ffffff;fill-opacity:1">
              <circle
                 id="circle5440"
                 r="21.216"
                 cy="93.852997"
                 cx="376.961"
                 style="fill:#ffffff;fill-opacity:1" />
              <path
                 id="path5442"
                 d="m 376.961,115.569 c -11.975,0 -21.717,-9.742 -21.717,-21.716 0,-11.975 9.742,-21.716 21.717,-21.716 11.975,0 21.717,9.742 21.717,21.716 0,11.974 -9.742,21.716 -21.717,21.716 z m 0,-42.432 c -11.423,0 -20.717,9.293 -20.717,20.716 0,11.423 9.294,20.716 20.717,20.716 11.423,0 20.717,-9.293 20.717,-20.716 0,-11.423 -9.294,-20.716 -20.717,-20.716 z"
                 inkscape:connector-curvature="0"
                 style="fill:#ffffff;fill-opacity:1" />
            </g>
            <g
               id="g5450"
               style="fill:#ffffff;fill-opacity:1">
              <path
                 id="path5446"
                 d="M 591.518,524.858 V 67.16 c 0,-32.058 -26.082,-58.14 -58.141,-58.14 H 58.64 C 26.582,9.02 0.5,35.102 0.5,67.16 v 457.698 c 0,32.058 26.082,58.14 58.14,58.14 h 474.737 c 32.059,0 58.141,-26.082 58.141,-58.14 z M 43.34,67.16 c 0,-8.45 6.85,-15.3 15.3,-15.3 h 474.737 c 8.449,0 15.301,6.85 15.301,15.3 v 65.484 H 43.34 Z m 0,457.698 V 175.484 h 505.338 v 349.374 c 0,8.449 -6.852,15.3 -15.301,15.3 H 58.64 c -8.45,0 -15.3,-6.851 -15.3,-15.3 z"
                 inkscape:connector-curvature="0"
                 style="fill:#ffffff;fill-opacity:1" />
              <path
                 id="path5448"
                 d="M 533.377,583.498 H 58.64 C 26.306,583.498 0,557.192 0,524.858 V 67.16 C 0,34.826 26.306,8.52 58.64,8.52 h 474.737 c 32.335,0 58.641,26.306 58.641,58.64 v 457.698 c 0,32.334 -26.306,58.64 -58.641,58.64 z M 58.64,9.52 C 26.857,9.52 1,35.377 1,67.16 v 457.698 c 0,31.782 25.857,57.64 57.64,57.64 h 474.737 c 31.783,0 57.641,-25.857 57.641,-57.64 V 67.16 c 0,-31.783 -25.857,-57.64 -57.641,-57.64 H 58.64 Z M 533.377,540.658 H 58.64 c -8.712,0 -15.8,-7.088 -15.8,-15.8 V 174.984 h 506.338 v 349.874 c 0,8.712 -7.088,15.8 -15.801,15.8 z M 43.84,175.984 v 348.874 c 0,8.161 6.64,14.8 14.8,14.8 h 474.737 c 8.161,0 14.801,-6.639 14.801,-14.8 V 175.984 Z m 505.338,-42.84 H 42.84 V 67.16 c 0,-8.712 7.088,-15.8 15.8,-15.8 h 474.737 c 8.713,0 15.801,7.088 15.801,15.8 z m -505.338,-1 H 548.178 V 67.16 c 0,-8.161 -6.64,-14.8 -14.801,-14.8 H 58.64 c -8.161,0 -14.8,6.639 -14.8,14.8 z"
                 inkscape:connector-curvature="0"
                 style="fill:#ffffff;fill-opacity:1" />
            </g>
          </g>
        </g>
        <g
           id="g5456"
           style="fill:#ffffff;fill-opacity:1" />
        <g
           id="g5458"
           style="fill:#ffffff;fill-opacity:1" />
        <g
           id="g5460"
           style="fill:#ffffff;fill-opacity:1" />
        <g
           id="g5462"
           style="fill:#ffffff;fill-opacity:1" />
        <g
           id="g5464"
           style="fill:#ffffff;fill-opacity:1" />
        <g
           id="g5466"
           style="fill:#ffffff;fill-opacity:1" />
        <g
           id="g5468"
           style="fill:#ffffff;fill-opacity:1" />
        <g
           id="g5470"
           style="fill:#ffffff;fill-opacity:1" />
        <g
           id="g5472"
           style="fill:#ffffff;fill-opacity:1" />
        <g
           id="g5474"
           style="fill:#ffffff;fill-opacity:1" />
        <g
           id="g5476"
           style="fill:#ffffff;fill-opacity:1" />
        <g
           id="g5478"
           style="fill:#ffffff;fill-opacity:1" />
        <g
           id="g5480"
           style="fill:#ffffff;fill-opacity:1" />
        <g
           id="g5482"
           style="fill:#ffffff;fill-opacity:1" />
        <g
           id="g5484"
           style="fill:#ffffff;fill-opacity:1" />
      </g>
    </g>
  </g>
</svg>
