<?xml version="1.0" encoding="UTF-8" standalone="no"?>
<!-- Created with Inkscape (http://www.inkscape.org/) -->

<svg
   xmlns:dc="http://purl.org/dc/elements/1.1/"
   xmlns:cc="http://creativecommons.org/ns#"
   xmlns:rdf="http://www.w3.org/1999/02/22-rdf-syntax-ns#"
   xmlns:svg="http://www.w3.org/2000/svg"
   xmlns="http://www.w3.org/2000/svg"
   xmlns:sodipodi="http://sodipodi.sourceforge.net/DTD/sodipodi-0.dtd"
   xmlns:inkscape="http://www.inkscape.org/namespaces/inkscape"
   width="150px"
   height="150px"
   viewBox="0 0 150 150"
   version="1.1"
   id="SVGRoot"
   inkscape:version="0.92.1 r15371"
   sodipodi:docname="paperPlane.svg">
  <sodipodi:namedview
     id="base"
     pagecolor="#ffffff"
     bordercolor="#666666"
     borderopacity="1.0"
     inkscape:pageopacity="0.0"
     inkscape:pageshadow="2"
     inkscape:zoom="1.7066667"
     inkscape:cx="-20.214844"
     inkscape:cy="75"
     inkscape:document-units="px"
     inkscape:current-layer="g5359"
     showgrid="false"
     inkscape:window-width="1920"
     inkscape:window-height="1017"
     inkscape:window-x="-8"
     inkscape:window-y="472"
     inkscape:window-maximized="1"
     inkscape:grid-bbox="true" />
  <defs
     id="defs949" />
  <metadata
     id="metadata952">
    <rdf:RDF>
      <cc:Work
         rdf:about="">
        <dc:format>image/svg+xml</dc:format>
        <dc:type
           rdf:resource="http://purl.org/dc/dcmitype/StillImage" />
        <dc:title></dc:title>
      </cc:Work>
    </rdf:RDF>
  </metadata>
  <g
     id="layer1"
     inkscape:groupmode="layer"
     inkscape:label="Layer 1">
    <g
       id="g5359"
       transform="matrix(0.51461057,0,0,0.51461057,80.665132,80.494941)">
      <g
         id="g5426"
         transform="matrix(0.57221606,0,0,0.57221606,-134.85716,-134.52665)"
         style="fill:#ffffff;fill-opacity:1">
        <path
           id="path5371"
           d="m 421.54,273.851 c 6.259,0 11.333,-5.074 11.333,-11.333 0,-2.302 -0.686,-4.443 -1.866,-6.232 L 306.217,40.755 c -0.022,-0.038 -0.048,-0.074 -0.07,-0.112 -0.065,-0.109 -0.133,-0.215 -0.202,-0.322 -0.101,-0.157 -0.204,-0.311 -0.311,-0.461 -0.069,-0.096 -0.138,-0.192 -0.21,-0.287 -0.138,-0.181 -0.282,-0.356 -0.43,-0.528 -0.05,-0.058 -0.096,-0.118 -0.147,-0.175 -0.208,-0.231 -0.424,-0.453 -0.648,-0.665 -0.013,-0.012 -0.023,-0.025 -0.036,-0.037 -0.038,-0.036 -0.081,-0.067 -0.119,-0.102 -0.179,-0.163 -0.362,-0.321 -0.551,-0.472 -0.079,-0.064 -0.159,-0.126 -0.24,-0.187 -0.172,-0.131 -0.349,-0.255 -0.528,-0.375 -0.08,-0.054 -0.159,-0.11 -0.24,-0.162 -0.249,-0.158 -0.502,-0.308 -0.762,-0.446 -0.06,-0.032 -0.122,-0.058 -0.183,-0.089 -0.208,-0.106 -0.42,-0.207 -0.635,-0.3 -0.096,-0.042 -0.193,-0.079 -0.29,-0.118 -0.19,-0.076 -0.382,-0.147 -0.577,-0.213 -0.094,-0.032 -0.186,-0.063 -0.281,-0.092 -0.228,-0.071 -0.459,-0.134 -0.693,-0.19 -0.057,-0.014 -0.113,-0.03 -0.169,-0.043 -0.301,-0.068 -0.605,-0.125 -0.913,-0.167 -0.021,-0.003 -0.042,-0.004 -0.063,-0.007 -0.275,-0.037 -0.551,-0.063 -0.83,-0.079 -0.087,-0.005 -0.174,-0.007 -0.261,-0.01 -0.21,-0.007 -0.42,-0.01 -0.631,-0.006 -0.111,0.002 -0.222,0.005 -0.333,0.011 -0.071,0.003 -0.142,0.002 -0.213,0.007 -0.051,0.003 -0.101,0.017 -0.152,0.021 -0.951,0.076 -1.893,0.272 -2.808,0.59 -0.082,0.029 -0.164,0.056 -0.245,0.086 -0.432,0.161 -0.857,0.347 -1.272,0.563 -0.063,0.033 -0.122,0.071 -0.185,0.105 -0.353,0.193 -0.697,0.407 -1.034,0.64 -0.082,0.057 -0.165,0.11 -0.245,0.169 -0.049,0.036 -0.1,0.066 -0.149,0.103 L 4.488,253.486 c -3.879,2.94 -5.447,8.029 -3.896,12.643 1.551,4.614 5.875,7.722 10.743,7.722 h 142.071 c 3.803,0 7.353,-1.907 9.451,-5.079 l 78.507,-118.628 -44.575,108.05 c -0.565,1.371 -0.856,2.839 -0.856,4.322 v 123.916 c 0,4.987 3.261,9.389 8.032,10.842 1.091,0.332 2.202,0.492 3.301,0.492 3.706,0 7.266,-1.823 9.41,-5.017 l 65.987,-98.282 -50.757,-20.594 h 64.584 l 0.016,-0.024 H 421.52 c 0.005,0.001 0.012,0.001 0.02,0.002 z"
           inkscape:connector-curvature="0"
           style="fill:#ffffff;fill-opacity:1" />
        <g
           id="g5373"
           style="fill:#ffffff;fill-opacity:1" />
        <g
           id="g5375"
           style="fill:#ffffff;fill-opacity:1" />
        <g
           id="g5377"
           style="fill:#ffffff;fill-opacity:1" />
        <g
           id="g5379"
           style="fill:#ffffff;fill-opacity:1" />
        <g
           id="g5381"
           style="fill:#ffffff;fill-opacity:1" />
        <g
           id="g5383"
           style="fill:#ffffff;fill-opacity:1" />
        <g
           id="g5385"
           style="fill:#ffffff;fill-opacity:1" />
        <g
           id="g5387"
           style="fill:#ffffff;fill-opacity:1" />
        <g
           id="g5389"
           style="fill:#ffffff;fill-opacity:1" />
        <g
           id="g5391"
           style="fill:#ffffff;fill-opacity:1" />
        <g
           id="g5393"
           style="fill:#ffffff;fill-opacity:1" />
        <g
           id="g5395"
           style="fill:#ffffff;fill-opacity:1" />
        <g
           id="g5397"
           style="fill:#ffffff;fill-opacity:1" />
        <g
           id="g5399"
           style="fill:#ffffff;fill-opacity:1" />
        <g
           id="g5401"
           style="fill:#ffffff;fill-opacity:1" />
      </g>
    </g>
  </g>
</svg>
