<?xml version="1.0" encoding="UTF-8" standalone="no"?>
<!-- Created with Inkscape (http://www.inkscape.org/) -->

<svg
   xmlns:dc="http://purl.org/dc/elements/1.1/"
   xmlns:cc="http://creativecommons.org/ns#"
   xmlns:rdf="http://www.w3.org/1999/02/22-rdf-syntax-ns#"
   xmlns:svg="http://www.w3.org/2000/svg"
   xmlns="http://www.w3.org/2000/svg"
   xmlns:sodipodi="http://sodipodi.sourceforge.net/DTD/sodipodi-0.dtd"
   xmlns:inkscape="http://www.inkscape.org/namespaces/inkscape"
   width="150px"
   height="150px"
   viewBox="0 0 150 150"
   version="1.1"
   id="SVGRoot"
   inkscape:version="0.92.1 r15371"
   sodipodi:docname="shoppingCart.svg">
  <sodipodi:namedview
     id="base"
     pagecolor="#ffffff"
     bordercolor="#666666"
     borderopacity="1.0"
     inkscape:pageopacity="0.0"
     inkscape:pageshadow="2"
     inkscape:zoom="1.7066667"
     inkscape:cx="-20.214844"
     inkscape:cy="75"
     inkscape:document-units="px"
     inkscape:current-layer="g5359"
     showgrid="false"
     inkscape:window-width="1920"
     inkscape:window-height="1017"
     inkscape:window-x="-8"
     inkscape:window-y="472"
     inkscape:window-maximized="1"
     inkscape:grid-bbox="true" />
  <defs
     id="defs949" />
  <metadata
     id="metadata952">
    <rdf:RDF>
      <cc:Work
         rdf:about="">
        <dc:format>image/svg+xml</dc:format>
        <dc:type
           rdf:resource="http://purl.org/dc/dcmitype/StillImage" />
        <dc:title></dc:title>
      </cc:Work>
    </rdf:RDF>
  </metadata>
  <g
     id="layer1"
     inkscape:groupmode="layer"
     inkscape:label="Layer 1">
    <g
       id="g5359"
       transform="matrix(0.51461057,0,0,0.51461057,80.665132,80.494941)">
      <path
         id="path5357"
         d="m 97.088888,-56.632631 c -2.64071,-3.959933 -9.2406,-7.920625 -14.52127,-7.920625 l -170.288525,-11.880557 -6.600648,-21.121161 c 0,-1.31998 -1.319978,-3.959936 -3.959934,-3.959936 l -15.841251,-5.27991 c -2.63996,-1.31997 -6.60065,0 -7.92063,3.95994 -1.31998,2.63995 0,6.600636 3.95993,7.920616 l 13.20054,3.959936 6.600652,22.441138 26.401075,91.084543 c 1.887417,6.890436 5.887557,12.553444 11.088573,16.646134 -5.914108,4.858126 -9.781491,12.118004 -9.781491,20.315522 0,14.520515 11.880559,26.401078 26.401075,26.401078 14.520515,0 26.401074,-11.880563 26.401074,-26.401078 0,-4.817919 -1.398873,-9.293706 -3.683041,-13.200537 h 50.941284 c -2.28341,3.907589 -3.683042,8.382618 -3.683042,13.200537 0,14.520515 11.88056,26.401078 26.401075,26.401078 14.53417,0 26.401074,-11.880563 26.401074,-26.401078 0,-7.114984 -2.8774,-13.570738 -7.49808,-18.335555 6.46789,-4.118482 11.31312,-10.507479 12.79165,-18.626101 l 15.841245,-62.043512 c 1.308597,-6.59989 1.308597,-11.88056 -2.651335,-17.160472 z M -44.171499,72.734305 c -7.920626,0 -13.200538,-5.279911 -13.200538,-13.200537 0,-7.920626 5.279912,-13.200538 13.200538,-13.200538 6.600648,0 13.200537,5.279912 13.200537,13.200538 0,7.920626 -5.28067,13.200537 -13.200537,13.200537 z m 96.364454,0 c -7.920626,0 -13.200537,-5.279911 -13.200537,-13.200537 0,-7.920626 5.279911,-13.200538 13.200537,-13.200538 7.933522,0 13.200537,5.279912 13.200537,13.200538 0,7.920626 -5.279911,13.200537 -13.200537,13.200537 z M 71.99414,19.931397 c -1.109084,6.679543 -6.996641,12.157451 -14.322518,13.794527 -1.769074,-0.383097 -3.590492,-0.59399 -5.478667,-0.59399 -2.732506,0 -5.320118,0.540888 -7.801524,1.319978 h -80.762165 c -2.481406,-0.77909 -5.069018,-1.319978 -7.801524,-1.319978 -0.620541,0 -1.201635,0.144894 -1.808521,0.185101 -5.729008,-2.204515 -10.732027,-7.405531 -12.725649,-13.385638 l -23.760361,-81.844698 163.688637,11.88056 c 2.63996,0 3.95993,1.319978 5.27991,2.639956 1.31998,1.319978 1.31998,3.959933 1.31998,5.279911 z"
         inkscape:connector-curvature="0"
         style="stroke-width:0.75860798;fill:#ffffff;fill-opacity:1" />
    </g>
  </g>
</svg>
